<?xml version="1.0" standalone="no"?>
<!DOCTYPE svg PUBLIC "-//W3C//DTD SVG 20010904//EN"
 "http://www.w3.org/TR/2001/REC-SVG-20010904/DTD/svg10.dtd">
<svg version="1.0" xmlns="http://www.w3.org/2000/svg"
 width="80.000000pt" height="80.000000pt" viewBox="0 0 80.000000 80.000000"
 preserveAspectRatio="xMidYMid meet">
<metadata>
Created by potrace 1.15, written by Peter Selinger 2001-2017
</metadata>
<g transform="translate(0.000000,80.000000) scale(0.100000,-0.100000)"
fill="#000000" stroke="none">
<path d="M273 751 c-65 -24 -97 -46 -152 -106 -69 -75 -85 -122 -85 -245 0
-87 3 -113 22 -153 30 -66 114 -151 181 -184 51 -25 66 -28 161 -28 87 1 113
5 153 23 66 30 151 114 184 181 25 50 28 67 28 161 0 94 -3 111 -28 161 -33
68 -119 152 -184 181 -69 31 -209 35 -280 9z m259 -48 c65 -30 133 -95 165
-162 24 -48 28 -68 28 -141 0 -74 -4 -92 -29 -143 -35 -68 -91 -123 -161 -157
-41 -21 -65 -25 -135 -25 -100 0 -154 20 -222 84 -182 167 -120 469 114 553
68 24 174 20 240 -9z"/>
<path d="M250 400 l0 -150 25 0 c24 0 24 2 27 93 l3 92 38 -92 c51 -123 63
-123 114 0 l38 92 3 -92 c3 -91 3 -93 27 -93 l25 0 0 150 0 150 -27 0 c-26 0
-31 -8 -72 -110 -25 -61 -48 -110 -51 -110 -3 0 -26 49 -51 110 -41 102 -46
110 -71 110 l-28 0 0 -150z"/>
</g>
</svg>
